<?xml version="1.0" encoding="utf-8"?>
<!-- Generator: Adobe Illustrator 16.0.0, SVG Export Plug-In . SVG Version: 6.00 Build 0)  -->
<!DOCTYPE svg PUBLIC "-//W3C//DTD SVG 1.1//EN" "http://www.w3.org/Graphics/SVG/1.1/DTD/svg11.dtd">
<svg version="1.1" id="Layer_1" xmlns="http://www.w3.org/2000/svg" xmlns:xlink="http://www.w3.org/1999/xlink" x="0px" y="0px"
	 width="48px" height="48px" viewBox="0 0 48 48" enable-background="new 0 0 48 48" xml:space="preserve">
<g opacity="0.3">
	<g>
		<g>
			<path d="M4.389,13.43c9.338,3.708,19.226,9.772,25.904,17.39c1.54,1.757,7.078-0.438,5.342-2.418
				C28.413,20.165,17.9,13.883,7.831,9.884C5.69,9.034,1.058,12.107,4.389,13.43L4.389,13.43z"/>
		</g>
	</g>
	<g>
		<g>
			<path d="M34.29,19.303c-0.511,1.829-0.946,3.679-1.337,5.537c-0.492,2.35-1.34,5.513-0.508,7.875
				c0.845,2.397,6.609,0.758,5.795-1.553c-0.723-2.051,0.142-4.838,0.554-6.882c0.374-1.859,0.825-3.71,1.336-5.537
				C40.828,16.243,34.93,17.013,34.29,19.303L34.29,19.303z"/>
		</g>
	</g>
	<g>
		<g>
			<path d="M37.877,31.069c-4.623-1.01-9.6-2.089-14.349-1.706c-1.273,0.103-2.912,0.485-3.878,1.385
				c-0.975,0.908,0.858,0.994,1.37,0.953c3.957-0.318,8.244,0.776,12.096,1.618c1.299,0.283,2.887-0.188,4.052-0.74
				C37.62,32.365,39.183,31.355,37.877,31.069L37.877,31.069z"/>
		</g>
	</g>
</g>
<g>
	<g>
		<g>
			<path fill="#FFFFFF" d="M5.25,12.544c9.515,3.779,19.571,9.907,26.378,17.672c0.771,0.879,3.539-0.219,2.672-1.209
				c-7.094-8.091-17.438-14.308-27.33-18.236C5.9,10.346,3.584,11.882,5.25,12.544L5.25,12.544z"/>
		</g>
	</g>
	<g>
		<g>
			<path fill="#FFFFFF" d="M35.75,19.163c-0.511,1.829-0.946,3.679-1.337,5.537c-0.477,2.275-1.326,5.337-0.52,7.627
				c0.423,1.198,3.305,0.378,2.898-0.777c-0.75-2.127,0.114-5.007,0.542-7.129c0.374-1.86,0.825-3.71,1.336-5.537
				C39.02,17.633,36.069,18.018,35.75,19.163L35.75,19.163z"/>
		</g>
	</g>
	<g>
		<g>
			<path fill="#FFFFFF" d="M36.687,31.632c-4.429-0.968-9.233-2.051-13.786-1.685c-0.754,0.062-3.165,1.323-1.254,1.17
				c4.156-0.335,8.61,0.755,12.659,1.64C34.985,32.905,37.51,31.812,36.687,31.632L36.687,31.632z"/>
		</g>
	</g>
</g>
</svg>
