<?xml version="1.0" encoding="utf-8"?>
<!-- Generator: Adobe Illustrator 16.0.0, SVG Export Plug-In . SVG Version: 6.00 Build 0)  -->
<!DOCTYPE svg PUBLIC "-//W3C//DTD SVG 1.1//EN" "http://www.w3.org/Graphics/SVG/1.1/DTD/svg11.dtd">
<svg version="1.1" id="Layer_1" xmlns="http://www.w3.org/2000/svg" xmlns:xlink="http://www.w3.org/1999/xlink" x="0px" y="0px"
	 width="402.667px" height="406px" viewBox="0 0 402.667 406" enable-background="new 0 0 402.667 406" xml:space="preserve">
<path fill="none" stroke="#939598" stroke-width="5" stroke-miterlimit="10" stroke-dasharray="12.0851,12.0851" d="M388.208,28.125
	c0-6.628-5.373-12-12-12H26.458c-6.627,0-12,5.372-12,12v349.75c0,6.627,5.373,12,12,12h349.75c6.627,0,12-5.373,12-12V28.125z"/>
<g>
	<path fill="#939598" d="M149.342,252.88c0-33.253,0-66.507,0-99.76c0.095-0.438,0.174-0.881,0.288-1.313
		c1.953-7.41,6.313-12.689,13.638-15.304c1.223-0.437,2.503-0.715,3.756-1.065c15.659,0,31.318,0,46.978,0
		c1.481,0.735,3.112,1.275,4.418,2.249c2.668,1.99,5.301,4.069,7.699,6.371c4.895,4.696,9.637,9.553,14.414,14.368
		c1.879,1.894,3.657,3.887,5.538,5.777c3.066,3.081,5.709,6.438,7.253,10.558c0,26.04,0,52.079,0,78.119
		c-0.095,0.438-0.175,0.88-0.287,1.313c-1.953,7.41-6.312,12.688-13.64,15.303c-1.224,0.438-2.502,0.715-3.756,1.066
		c-22.873,0-45.745,0-68.618,0c-2.813-0.691-5.558-1.498-8.046-3.102c-3.673-2.365-6.418-5.473-8.035-9.52
		C150.289,256.305,149.869,254.57,149.342,252.88z M159.894,202.861c0,15.302-0.005,30.604,0.011,45.907
		c0.001,0.904,0.138,1.812,0.252,2.713c0.619,4.867,5.189,8.533,10.019,8.531c20.667-0.005,41.333-0.021,62.001,0.01
		c5.986,0.01,10.605-4.617,10.6-10.676c-0.014-16.666-0.004-33.332-0.004-49.997c0-5.629,0.062-11.259-0.025-16.886
		c-0.047-3.024-0.953-3.855-3.369-4.726c-1.271-0.457-2.717-0.568-4.086-0.582c-6.11-0.059-12.225-0.023-18.336-0.025
		c-3.108-0.002-5.297-2.209-5.33-5.31c-0.073-6.931-0.104-13.862-0.295-20.789c-0.067-2.534-1.309-5.174-5.129-5.113
		c-11.957,0.19-23.919,0.067-35.88,0.071c-5.856,0.002-10.402,4.559-10.416,10.436C159.87,171.904,159.894,187.383,159.894,202.861z
		"/>
	<path fill="#939598" d="M201.349,239.416c-9.148,0-18.297,0.014-27.444-0.023c-0.792-0.002-1.648-0.188-2.361-0.526
		c-1.579-0.749-1.771-1.771-0.935-3.451c1.444-2.897,2.787-5.849,4.27-8.726c1.998-3.883,4.168-7.67,7.17-10.889
		c1.041-1.115,2.084-2.494,3.858-2.195c1.06,0.178,2.283,0.533,3.021,1.24c1.719,1.646,3.168,3.57,4.763,5.352
		c1.443,1.611,2.861,3.188,5.171,3.714c1.672,0.382,2.864-0.211,3.992-1.193c2.778-2.42,4.006-5.778,5.342-9.055
		c1.429-3.501,2.722-7.06,4.242-10.518c0.612-1.395,1.572-2.681,2.565-3.853c0.994-1.171,2.433-1.081,3.562-0.032
		c2.018,1.873,3.281,4.278,4.277,6.748c1.799,4.459,3.453,8.987,4.932,13.562c1.596,4.939,2.975,9.953,4.344,14.964
		c0.695,2.553-1.004,5.01-3.723,4.952C219.384,239.298,210.365,239.416,201.349,239.416z"/>
	<path fill="#939598" d="M185.722,202.995c-5.979,0.156-10.512-4.636-10.488-10.465c0.023-5.53,4.443-10.726,11.126-10.386
		c5.536,0.281,9.872,4.672,9.91,10.463C196.308,198.289,191.728,203.248,185.722,202.995z"/>
</g>
</svg>
