<?xml version="1.0" encoding="utf-8"?>
<!-- Generator: Adobe Illustrator 16.0.0, SVG Export Plug-In . SVG Version: 6.00 Build 0)  -->
<!DOCTYPE svg PUBLIC "-//W3C//DTD SVG 1.1//EN" "http://www.w3.org/Graphics/SVG/1.1/DTD/svg11.dtd">
<svg version="1.1" id="Layer_1" xmlns="http://www.w3.org/2000/svg" xmlns:xlink="http://www.w3.org/1999/xlink" x="0px" y="0px"
	 width="1024px" height="1024px" viewBox="0 0 1024 1024" enable-background="new 0 0 1024 1024" xml:space="preserve">
<path fill="#FFFFFF" d="M397.945,621.424c0-72.947,0-145.899,0-218.848c0.21-0.962,0.381-1.932,0.632-2.881
	c4.284-16.255,13.849-27.838,29.916-33.572c2.685-0.958,5.492-1.568,8.243-2.337c34.349,0,68.703,0,103.056,0
	c3.252,1.614,6.829,2.798,9.689,4.934c5.854,4.366,11.63,8.927,16.892,13.976c10.737,10.303,21.141,20.957,31.621,31.521
	c4.121,4.154,8.025,8.526,12.151,12.674c6.727,6.758,12.523,14.125,15.909,23.161c0,57.125,0,114.249,0,171.374
	c-0.206,0.963-0.382,1.932-0.631,2.882c-4.283,16.257-13.847,27.837-29.921,33.57c-2.68,0.96-5.487,1.569-8.237,2.339
	c-50.179,0-100.355,0-150.53,0c-6.172-1.518-12.192-3.285-17.65-6.801c-8.06-5.189-14.08-12.007-17.627-20.884
	C400.022,628.935,399.101,625.132,397.945,621.424z"/>
<path fill="#939598" d="M391.778,627.341c0-76.894,0-153.789,0-230.682c0.221-1.014,0.402-2.037,0.666-3.037
	c4.516-17.135,14.599-29.343,31.536-35.388c2.829-1.01,5.788-1.653,8.687-2.464c36.208,0,72.417,0,108.627,0
	c3.428,1.7,7.198,2.949,10.216,5.201c6.169,4.602,12.257,9.41,17.804,14.732c11.317,10.859,22.283,22.089,33.33,33.224
	c4.345,4.379,8.459,8.988,12.809,13.359c7.091,7.125,13.201,14.888,16.77,24.413c0,60.214,0,120.427,0,180.641
	c-0.217,1.014-0.402,2.034-0.664,3.037c-4.517,17.135-14.597,29.343-31.538,35.386c-2.827,1.012-5.785,1.653-8.685,2.466
	c-52.892,0-105.78,0-158.668,0c-6.506-1.599-12.851-3.464-18.605-7.17c-8.496-5.469-14.841-12.654-18.581-22.013
	C393.968,635.258,392.997,631.25,391.778,627.341z M416.177,511.679c0,35.383-0.011,70.769,0.025,106.155
	c0.002,2.091,0.321,4.188,0.585,6.271c1.429,11.257,12,19.734,23.167,19.729c47.79-0.011,95.578-0.047,143.369,0.023
	c13.843,0.02,24.524-10.68,24.511-24.689c-0.031-38.537-0.009-77.073-0.009-115.609c0-13.016,0.145-26.035-0.059-39.046
	c-0.108-6.993-2.204-8.915-7.791-10.927c-2.94-1.057-6.282-1.314-9.448-1.346c-14.132-0.136-28.268-0.054-42.399-0.059
	c-7.19-0.005-12.248-5.108-12.325-12.278c-0.172-16.026-0.244-32.055-0.682-48.072c-0.158-5.86-3.026-11.963-11.86-11.824
	c-27.649,0.44-55.312,0.156-82.97,0.165c-13.542,0.004-24.054,10.541-24.085,24.131
	C416.123,440.095,416.177,475.887,416.177,511.679z"/>
<g>
	<path fill-rule="evenodd" clip-rule="evenodd" fill="#951A1D" d="M556.147,557.734c7.227,7.225,7.227,18.938,0,26.161l0,0
		c-7.222,7.224-18.937,7.224-26.158,0l-62.136-62.134c-7.224-7.224-7.224-18.937,0-26.161l0,0c7.224-7.224,18.937-7.224,26.161,0
		L556.147,557.734z"/>
	<path fill-rule="evenodd" clip-rule="evenodd" fill="#951A1D" d="M529.989,495.601c7.222-7.224,18.937-7.224,26.158,0l0,0
		c7.227,7.224,7.227,18.937,0,26.161l-62.133,62.134c-7.224,7.224-18.937,7.224-26.161,0l0,0c-7.224-7.224-7.224-18.937,0-26.161
		L529.989,495.601z"/>
</g>
</svg>
