<?xml version="1.0" encoding="utf-8"?>
<!-- Generator: Adobe Illustrator 16.0.0, SVG Export Plug-In . SVG Version: 6.00 Build 0)  -->
<!DOCTYPE svg PUBLIC "-//W3C//DTD SVG 1.1//EN" "http://www.w3.org/Graphics/SVG/1.1/DTD/svg11.dtd">
<svg version="1.1" id="Layer_1" xmlns="http://www.w3.org/2000/svg" xmlns:xlink="http://www.w3.org/1999/xlink" x="0px" y="0px"
	 width="48px" height="48px" viewBox="0 0 48 48" enable-background="new 0 0 48 48" xml:space="preserve">
<g>
	<path fill-rule="evenodd" clip-rule="evenodd" d="M32.245,36.326c-0.419-0.107-0.848-0.19-1.258-0.326
		c-2.701-0.895-4.257-3.59-3.69-6.369c0.553-2.718,3.074-4.609,5.867-4.405c2.611,0.191,4.784,2.315,5.033,4.912
		c0.011,0.122,0.063,0.24,0.098,0.359c0,0.184,0,0.366,0,0.55c-0.031,0.123-0.074,0.243-0.09,0.367
		c-0.277,2.264-1.833,4.077-4.025,4.675c-0.347,0.095-0.702,0.158-1.054,0.237C32.832,36.326,32.539,36.326,32.245,36.326z
		 M33.684,27.929c-0.673,0-1.282,0-1.963,0c0,0.634,0,1.225,0,1.868c-0.651,0-1.229,0-1.831,0c0,0.666,0,1.275,0,1.937
		c0.62,0,1.199,0,1.844,0c0,0.646,0,1.239,0,1.853c0.675,0,1.282,0,1.97,0c0-0.642,0-1.233,0-1.886c0.659,0,1.237,0,1.854,0
		c0-0.657,0-1.251,0-1.932c-0.632,0-1.24,0-1.873,0C33.684,29.116,33.684,28.552,33.684,27.929z"/>
	<path fill-rule="evenodd" clip-rule="evenodd" d="M26.894,35.523c-1.428,0-2.762,0.004-4.097-0.001
		c-1.869-0.008-3.738-0.024-5.607-0.033c-1.778-0.009-3.512-1.63-3.521-3.414c-0.03-5.662-0.033-11.325-0.009-16.987
		c0.008-1.726,1.714-3.379,3.433-3.397c2.29-0.023,4.581,0.002,6.871-0.017c0.624-0.005,1.18,0.167,1.608,0.585
		c1.858,1.819,3.703,3.652,5.524,5.507c0.47,0.48,0.664,1.1,0.638,1.81c-0.045,1.225-0.012,2.453-0.012,3.732
		c-0.583,0.155-1.17,0.311-1.88,0.5c0-1.024,0.011-1.989-0.002-2.954c-0.019-1.358-0.199-1.531-1.562-1.547
		c-1.008-0.012-2.016-0.017-3.023-0.03c-0.739-0.01-1.046-0.288-1.074-1.011c-0.039-1.025-0.053-2.052-0.08-3.078
		c-0.006-0.237-0.005-0.478-0.041-0.712c-0.111-0.728-0.304-0.931-1.028-0.933c-1.942-0.006-3.885,0.002-5.826,0.04
		c-0.868,0.017-1.648,0.821-1.65,1.683c-0.01,5.552-0.01,11.104,0,16.657c0.001,0.884,0.897,1.686,1.834,1.692
		c2.62,0.019,5.241,0.042,7.862,0.03c0.436-0.002,0.657,0.137,0.836,0.517C26.287,34.588,26.564,34.979,26.894,35.523z"/>
	<path fill-rule="evenodd" clip-rule="evenodd" fill="#FFFFFF" d="M33.646,27.929c0,0.623,0,1.188,0,1.84c0.634,0,1.242,0,1.874,0
		c0,0.681,0,1.274,0,1.932c-0.616,0-1.195,0-1.854,0c0,0.652,0,1.244,0,1.886c-0.688,0-1.296,0-1.97,0c0-0.613,0-1.206,0-1.853
		c-0.646,0-1.225,0-1.845,0c0-0.661,0-1.271,0-1.937c0.603,0,1.181,0,1.831,0c0-0.644,0-1.234,0-1.868
		C32.365,27.929,32.974,27.929,33.646,27.929z"/>
</g>
</svg>
