<?xml version="1.0" encoding="utf-8"?>
<!-- Generator: Adobe Illustrator 16.0.0, SVG Export Plug-In . SVG Version: 6.00 Build 0)  -->
<!DOCTYPE svg PUBLIC "-//W3C//DTD SVG 1.1//EN" "http://www.w3.org/Graphics/SVG/1.1/DTD/svg11.dtd">
<svg version="1.1" id="Layer_1" xmlns="http://www.w3.org/2000/svg" xmlns:xlink="http://www.w3.org/1999/xlink" x="0px" y="0px"
	 width="48px" height="48px" viewBox="0 0 48 48" enable-background="new 0 0 48 48" xml:space="preserve">
<rect x="4.805" y="22.514" transform="matrix(-0.7071 -0.7071 0.7071 -0.7071 23.9998 57.9408)" fill="#FFFFFF" width="38.389" height="2.972"/>
<g>
	<path fill-rule="evenodd" clip-rule="evenodd" fill="#FFFFFF" stroke="#FFFFFF" stroke-miterlimit="10" d="M28.181,33.597
		c-5.486,0.002-10.972,0.005-16.458,0.001c-3.599-0.004-6.321-2.838-6.196-6.432c0.092-2.637,1.997-5,4.598-5.657
		c0.394-0.099,0.529-0.219,0.499-0.651c-0.094-1.364,0.452-2.586,1.429-3.392l-1.109-1.11c-0.912,0.824-1.576,1.958-1.79,3.299
		c-0.069,0.437-0.21,0.647-0.62,0.825c-2.904,1.259-4.684,4.084-4.612,7.252c0.068,3.027,2.046,5.832,4.933,6.924
		c0.654,0.248,1.357,0.367,2.038,0.547c6.298,0,12.597,0,18.896,0L28.181,33.597z"/>
	<path fill-rule="evenodd" clip-rule="evenodd" fill="#FFFFFF" stroke="#FFFFFF" stroke-miterlimit="10" d="M43.931,27.119
		c-0.527-3.071-2.356-4.961-5.297-5.84c-0.313-0.094-0.641-0.137-0.955-0.202c0.282-4.723-2.688-8.877-6.775-10.413
		c-2.06-0.774-4.167-0.927-6.294-0.363c-2.256,0.599-4.037,1.793-5.417,3.477l1.076,1.076c0.965-1.188,2.218-2.117,3.821-2.724
		c1.886-0.714,3.808-0.718,5.74-0.154c3.521,1.029,7.221,5.086,6.113,10.516c0.61,0.038,1.228,0.031,1.83,0.122
		c2.677,0.4,4.645,2.763,4.623,5.513c-0.018,2.352-1.55,4.411-3.698,5.155l1.21,1.21c2.145-1.015,3.663-3.012,4.02-5.438
		c0.013-0.09,0.048-0.178,0.073-0.266c0-0.48,0-0.963,0-1.443C43.977,27.27,43.944,27.195,43.931,27.119z"/>
</g>
</svg>
