<?xml version="1.0" encoding="utf-8"?>
<!-- Generator: Adobe Illustrator 16.0.0, SVG Export Plug-In . SVG Version: 6.00 Build 0)  -->
<!DOCTYPE svg PUBLIC "-//W3C//DTD SVG 1.1//EN" "http://www.w3.org/Graphics/SVG/1.1/DTD/svg11.dtd">
<svg version="1.1" id="Layer_1" xmlns="http://www.w3.org/2000/svg" xmlns:xlink="http://www.w3.org/1999/xlink" x="0px" y="0px"
	 width="48px" height="48px" viewBox="0 0 48 48" enable-background="new 0 0 48 48" xml:space="preserve">
<rect x="4.805" y="22.514" transform="matrix(-0.7071 -0.7071 0.7071 -0.7071 23.9998 57.9408)" fill="#7F0000" width="38.389" height="2.972"/>
<g>
	<path d="M22.879,19.179c0.362-0.079,0.735-0.126,1.121-0.125c2.907,0.001,5.266,2.365,5.264,5.274c0,0.383-0.046,0.753-0.123,1.112
		l6.936,6.937c0.385-0.343,0.624-0.825,0.625-1.401c0.002-1.847,0-3.69,0-5.539c0-2.578,0-5.15,0-7.726
		c0-0.443-0.112-0.85-0.383-1.205c-0.406-0.533-0.963-0.742-1.616-0.742c-2.123,0-4.247-0.003-6.37,0.002
		c-0.148,0-0.236-0.041-0.314-0.173c-0.387-0.665-0.789-1.319-1.176-1.985c-0.188-0.326-0.443-0.483-0.826-0.48
		c-1.341,0.01-2.681,0.011-4.02,0c-0.394-0.003-0.653,0.157-0.844,0.49c-0.384,0.667-0.789,1.32-1.175,1.984
		c-0.074,0.129-0.159,0.166-0.299,0.164c-0.071-0.001-0.142,0-0.213,0L22.879,19.179z M31.366,18.122
		c0.784-0.016,1.567-0.016,2.348,0c0.437,0.009,0.72,0.336,0.707,0.76c-0.013,0.403-0.325,0.7-0.747,0.704
		c-0.381,0.002-0.762,0-1.143,0c-0.375,0-0.749,0.002-1.123-0.001c-0.418-0.004-0.734-0.303-0.751-0.703
		C30.639,18.469,30.934,18.131,31.366,18.122z"/>
	<path d="M24.381,20.68l3.254,3.254C27.456,22.212,26.109,20.866,24.381,20.68z"/>
	<path d="M23.994,28.002c0.096,0,0.186-0.021,0.279-0.027l-3.919-3.919c-0.006,0.088-0.027,0.173-0.027,0.263
		C20.32,26.354,21.96,27.999,23.994,28.002z"/>
	<path d="M25.615,29.316c-0.513,0.166-1.049,0.279-1.616,0.279c-2.908,0-5.262-2.361-5.264-5.271c0-0.566,0.112-1.101,0.277-1.612
		l-6.705-6.705c-0.634,0.323-1.009,0.913-1.009,1.681c-0.001,4.42-0.001,8.843,0,13.263c0,1.113,0.8,1.919,1.916,1.919
		c5.318,0.001,10.637,0,15.955-0.001L25.615,29.316z"/>
</g>
</svg>
