<?xml version="1.0" encoding="utf-8"?>
<!-- Generator: Adobe Illustrator 16.0.0, SVG Export Plug-In . SVG Version: 6.00 Build 0)  -->
<!DOCTYPE svg PUBLIC "-//W3C//DTD SVG 1.1//EN" "http://www.w3.org/Graphics/SVG/1.1/DTD/svg11.dtd">
<svg version="1.1" id="Layer_1" xmlns="http://www.w3.org/2000/svg" xmlns:xlink="http://www.w3.org/1999/xlink" x="0px" y="0px"
	 width="48px" height="48px" viewBox="0 0 48 48" enable-background="new 0 0 48 48" xml:space="preserve">
<path fill="#FFFFFF" d="M26.061,19.032c0.92,0.921,1.959,1.961,3.032,3.036c-0.925,0.918-1.883,1.876-2.853,2.821
	c-0.102,0.098-0.277,0.163-0.42,0.164c-1.972,0.012-3.946,0.008-5.794,0.008C22.009,23.08,24.041,21.049,26.061,19.032z"/>
<rect x="4.807" y="22.514" transform="matrix(-0.7071 -0.7071 0.7071 -0.7071 24.0031 57.9422)" fill="#7F0000" width="38.389" height="2.972"/>
<g>
	<path d="M14.075,34.471c-0.162-0.125-0.566-0.16-0.707-0.046c-0.476,0.386-0.982,0.798-1.287,1.312
		c-0.26,0.44-0.382,1.043-0.345,1.56c0.065,0.918,0.776,1.36,1.574,1.657c0.239,0,0.478,0,0.72,0
		c0.069-0.035,0.135-0.081,0.209-0.104c1.474-0.482,1.949-2.119,0.939-3.291C14.841,35.167,14.481,34.783,14.075,34.471z"/>
	<path d="M25.423,18.088c-0.264,0.28-0.396,0.427-0.534,0.567c-0.422,0.422-0.845,0.843-1.267,1.265l0.775,0.775
		c0.554-0.554,1.109-1.108,1.664-1.662c0.92,0.921,1.959,1.961,3.033,3.036c-0.545,0.542-1.104,1.097-1.668,1.655l0.626,0.626
		c0.175-0.176,0.352-0.351,0.526-0.526c0.39-0.393,0.746-0.82,1.242-1.369c0.301,0.382,0.486,0.672,0.726,0.909
		c0.578,0.573,1.076,0.564,1.651,0c0.482-0.476,0.961-0.956,1.439-1.437c0.639-0.645,0.646-1.072,0.034-1.735
		c-0.687-0.744-0.681-1.414,0.029-2.143c0.487-0.5,1.001-0.975,1.47-1.491c0.592-0.652,0.838-1.426,0.691-2.311
		c-0.207-1.265-1.049-1.897-2.199-2.23c-0.279,0-0.559,0-0.837,0c-0.823,0.207-1.449,0.706-2.002,1.325
		c-0.239,0.267-0.505,0.511-0.759,0.764c-0.883,0.881-1.465,0.899-2.41,0.074c-0.497-0.432-1.014-0.442-1.487,0.011
		c-0.562,0.536-1.11,1.088-1.651,1.648c-0.457,0.474-0.471,1.008-0.017,1.481C24.771,17.602,25.104,17.825,25.423,18.088z"/>
	<path d="M21.361,25.061c-0.445,0-0.902,0-1.334,0c0.22-0.22,0.446-0.445,0.667-0.667l-0.776-0.775
		c-0.559,0.557-1.115,1.118-1.676,1.674c-0.749,0.741-1.356,1.569-1.667,2.577c-0.315,1.02-0.853,1.876-1.629,2.596
		c-0.58,0.537-1.152,1.083-1.675,1.576c0.918,0.921,1.731,1.736,2.594,2.604c0.569-0.584,1.116-1.258,1.778-1.791
		c0.67-0.539,1.405-1.062,2.198-1.373c1.079-0.424,2.04-0.963,2.855-1.778c0.551-0.552,1.102-1.103,1.654-1.653L21.361,25.061z"/>
</g>
</svg>
