<?xml version="1.0" encoding="utf-8"?>
<!-- Generator: Adobe Illustrator 16.0.0, SVG Export Plug-In . SVG Version: 6.00 Build 0)  -->
<!DOCTYPE svg PUBLIC "-//W3C//DTD SVG 1.1//EN" "http://www.w3.org/Graphics/SVG/1.1/DTD/svg11.dtd">
<svg version="1.1" id="Layer_1" xmlns="http://www.w3.org/2000/svg" xmlns:xlink="http://www.w3.org/1999/xlink" x="0px" y="0px"
	 width="48px" height="48px" viewBox="0 0 48 48" enable-background="new 0 0 48 48" xml:space="preserve">
<g>
	<path fill-rule="evenodd" clip-rule="evenodd" d="M33.662,12.016c1.15,0.333,1.993,0.965,2.2,2.23
		c0.146,0.885-0.1,1.659-0.692,2.311c-0.469,0.516-0.982,0.991-1.47,1.491c-0.71,0.729-0.716,1.399-0.029,2.143
		c0.612,0.663,0.605,1.09-0.035,1.735c-0.478,0.481-0.956,0.961-1.439,1.437c-0.575,0.564-1.073,0.573-1.651,0
		c-0.239-0.237-0.425-0.527-0.725-0.909c-0.497,0.549-0.853,0.976-1.243,1.369c-1.956,1.965-3.922,3.918-5.882,5.879
		c-0.815,0.815-1.776,1.355-2.855,1.778c-0.793,0.312-1.528,0.834-2.198,1.374c-0.662,0.533-1.209,1.207-1.778,1.79
		c-0.863-0.866-1.676-1.682-2.594-2.603c0.523-0.493,1.095-1.039,1.675-1.576c0.776-0.72,1.314-1.577,1.629-2.596
		c0.311-1.007,0.918-1.836,1.667-2.577c2.225-2.203,4.433-4.423,6.646-6.637c0.139-0.14,0.271-0.287,0.535-0.567
		c-0.32-0.263-0.652-0.486-0.924-0.769c-0.454-0.473-0.44-1.007,0.017-1.481c0.54-0.56,1.089-1.112,1.651-1.648
		c0.474-0.453,0.99-0.443,1.487-0.011c0.946,0.825,1.527,0.807,2.41-0.074c0.254-0.253,0.52-0.497,0.759-0.764
		c0.553-0.619,1.179-1.118,2.002-1.325C33.104,12.016,33.383,12.016,33.662,12.016z M26.061,19.032
		c-2.02,2.018-4.052,4.048-6.034,6.029c1.848,0,3.822,0.003,5.795-0.008c0.142-0.001,0.318-0.066,0.419-0.164
		c0.97-0.945,1.928-1.902,2.853-2.821C28.02,20.993,26.98,19.953,26.061,19.032z"/>
	<path fill-rule="evenodd" clip-rule="evenodd" d="M13.31,38.953c-0.798-0.297-1.509-0.739-1.574-1.657
		c-0.037-0.516,0.085-1.119,0.345-1.559c0.305-0.515,0.811-0.927,1.287-1.312c0.141-0.114,0.545-0.079,0.707,0.045
		c0.406,0.313,0.766,0.697,1.103,1.088c1.01,1.173,0.535,2.809-0.939,3.291c-0.074,0.023-0.14,0.069-0.209,0.104
		C13.788,38.953,13.549,38.953,13.31,38.953z"/>
	<path fill-rule="evenodd" clip-rule="evenodd" fill="#FFFFFF" d="M26.061,19.032c0.92,0.921,1.959,1.961,3.032,3.036
		c-0.925,0.918-1.883,1.876-2.853,2.821c-0.101,0.098-0.277,0.163-0.419,0.164c-1.973,0.011-3.947,0.008-5.795,0.008
		C22.009,23.08,24.041,21.049,26.061,19.032z"/>
</g>
</svg>
